<?xml version="1.0" encoding="UTF-8"?>
<svg version="1.1" xmlns="http://www.w3.org/2000/svg" width="50" height="50">
<path d="M0 0 C0.65830811 -0.00191345 1.31661621 -0.0038269 1.99487305 -0.00579834 C3.3868854 -0.0071595 4.77891047 -0.00346783 6.17089844 0.00488281 C8.30432589 0.015584 10.43691131 0.00498594 12.5703125 -0.0078125 C13.92187686 -0.00649089 15.2734407 -0.00392847 16.625 0 C18.47544922 0.00338379 18.47544922 0.00338379 20.36328125 0.00683594 C23.3125 0.265625 23.3125 0.265625 25.3125 2.265625 C26.06092914 7.25515258 26.06092914 7.25515258 25.3125 10.265625 C22.54490837 13.72141455 19.49602107 15.87111798 15.3125 17.265625 C13.04486426 17.41210582 10.77217634 17.4865876 8.5 17.515625 C6.69595703 17.55429687 6.69595703 17.55429687 4.85546875 17.59375 C0.03921816 17.14770254 -3.17082176 15.3432648 -7.0625 12.578125 C-9.54944825 9.03900634 -9.1007776 6.53616022 -8.6875 2.265625 C-5.85490425 -0.56697075 -3.9605534 0.00724239 0 0 Z M-4.6875 4.265625 C-4.22494487 9.10492918 -4.22494487 9.10492918 -1.8125 11.015625 C3.00876658 13.85166417 7.87320091 13.75626162 13.3125 13.265625 C16.714185 11.92924875 18.74728846 10.83083654 21.3125 8.265625 C21.3125 6.945625 21.3125 5.625625 21.3125 4.265625 C12.7325 4.265625 4.1525 4.265625 -4.6875 4.265625 Z " fill="#FFFFFF" transform="translate(16.6875,28.734375)"/>
<path d="M0 0 C2.40299246 1.86899413 3.44793745 3.52348427 4.6875 6.3125 C5.22325611 11.31289033 4.77660768 14.30810116 1.6875 18.3125 C-2.5383785 21.12975233 -6.34874688 21.11208384 -11.3125 20.3125 C-14.13674288 18.12227082 -15.72758603 16.48232793 -17.3125 13.3125 C-17.6876455 8.34182218 -17.47128799 5.26098498 -14.3125 1.3125 C-10.33970029 -1.77745533 -4.62866115 -1.37608845 0 0 Z M-11.75 5.5 C-13.53779278 8.15897339 -13.53779278 8.15897339 -13.25 10.9375 C-12.21987836 13.54714149 -11.66305139 14.77248357 -9.3125 16.3125 C-6.35529372 16.97930368 -6.35529372 16.97930368 -3.3125 16.3125 C-0.7410061 14.2440113 -0.7410061 14.2440113 0.6875 11.3125 C0.61857581 8.41768392 0.07611317 6.90564642 -1.5 4.5 C-5.38431098 1.9551066 -8.40324686 2.4965036 -11.75 5.5 Z " fill="#FFFFFF" transform="translate(31.3125,4.6875)"/>
</svg>
