<?xml version="1.0" encoding="UTF-8"?>
<svg version="1.1" xmlns="http://www.w3.org/2000/svg" width="50" height="50">
<path d="M0 0 C2.64 0 5.28 0 8 0 C8.33 2.31 8.66 4.62 9 7 C10.0725 6.484375 11.145 5.96875 12.25 5.4375 C14.5310885 4.46711759 15.74945788 3.98608099 18.25 4.125 C20.36954731 5.18477366 21.62846905 6.05098234 23 8 C22.75 9.875 22.75 9.875 22 12 C21.65939189 13.66519519 21.32441604 15.33157466 21 17 C22.98 17.66 24.96 18.32 27 19 C27 21.64 27 24.28 27 27 C25.02 27.66 23.04 28.32 21 29 C21.144375 29.556875 21.28875 30.11375 21.4375 30.6875 C21.623125 31.450625 21.80875 32.21375 22 33 C22.268125 33.825 22.53625 34.65 22.8125 35.5 C23 38 23 38 21.3125 40.375 C19 42 19 42 17.0625 41.8125 C16.381875 41.544375 15.70125 41.27625 15 41 C13.33480481 40.65939189 11.66842534 40.32441604 10 40 C9.34 41.98 8.68 43.96 8 46 C5.36 46 2.72 46 0 46 C-0.33 43.69 -0.66 41.38 -1 39 C-2.0725 39.515625 -3.145 40.03125 -4.25 40.5625 C-6.5310885 41.53288241 -7.74945788 42.01391901 -10.25 41.875 C-12.36954731 40.81522634 -13.62846905 39.94901766 -15 38 C-14.75 36.125 -14.75 36.125 -14 34 C-13.65939189 32.33480481 -13.32441604 30.66842534 -13 29 C-14.98 28.34 -16.96 27.68 -19 27 C-19 24.36 -19 21.72 -19 19 C-17.02 18.34 -15.04 17.68 -13 17 C-13.68648065 13.40754318 -13.68648065 13.40754318 -14.8125 9.9375 C-15 8 -15 8 -13.3125 5.6875 C-11 4 -11 4 -9.0625 4.1875 C-8.381875 4.455625 -7.70125 4.72375 -7 5 C-5.33480481 5.34060811 -3.66842534 5.67558396 -2 6 C-1.34 4.02 -0.68 2.04 0 0 Z M3 2 C2.690625 3.423125 2.690625 3.423125 2.375 4.875 C1 8 1 8 -1.8125 9.5 C-5.32891623 10.0515947 -6.89664767 9.64295123 -10 8 C-10.19885 11.71291032 -10.19885 11.71291032 -9.375 14 C-9 16 -9 16 -9.5625 18.125 C-11.59995095 20.78254472 -13.83141251 21.17341196 -17 22 C-16.67 22.99 -16.34 23.98 -16 25 C-14.35 25.33 -12.7 25.66 -11 26 C-8.78461538 31.29230769 -8.78461538 31.29230769 -9.875 34.875 C-10.24625 35.57625 -10.6175 36.2775 -11 37 C-7.30398056 37.18587346 -7.30398056 37.18587346 -5.0625 36.4375 C-2.47175177 35.88794735 -0.5450849 36.36372878 2 37 C2 38.98 2 40.96 2 43 C3.32 43 4.64 43 6 43 C6.12375 41.824375 6.12375 41.824375 6.25 40.625 C7 38 7 38 8.8125 36.625 C11.36268322 35.89637622 12.52747005 36.12265066 15 37 C15.99 37.33 16.98 37.66 18 38 C18.19885 34.28708968 18.19885 34.28708968 17.375 32 C17 30 17 30 17.5625 27.875 C19.59995095 25.21745528 21.83141251 24.82658804 25 24 C24.505 22.515 24.505 22.515 24 21 C22.35 20.67 20.7 20.34 19 20 C16.78461538 14.70769231 16.78461538 14.70769231 17.875 11.125 C18.24625 10.42375 18.6175 9.7225 19 9 C15.30398056 8.81412654 15.30398056 8.81412654 13.0625 9.5625 C10.47175177 10.11205265 8.5450849 9.63627122 6 9 C6 7.02 6 5.04 6 3 C5.01 2.67 4.02 2.34 3 2 Z " fill="#FFFFFF" transform="translate(21,2)"/>
<path d="M0 0 C2.5 1.5 2.5 1.5 4 4 C4.791013 8.02098277 4.62153384 10.96411027 2.5 14.5 C-1.03588973 16.62153384 -3.97901723 16.791013 -8 16 C-10.5 14.5 -10.5 14.5 -12 12 C-12.791013 7.97901723 -12.62153384 5.03588973 -10.5 1.5 C-6.96411027 -0.62153384 -4.02098277 -0.791013 0 0 Z M-9 5 C-9.33333333 8 -9.33333333 8 -9 11 C-7.11499729 13.31563087 -7.11499729 13.31563087 -4 13.25 C-0.88500271 13.31563087 -0.88500271 13.31563087 1 11 C1.33333333 8 1.33333333 8 1 5 C-0.88500271 2.68436913 -0.88500271 2.68436913 -4 2.75 C-7.11499729 2.68436913 -7.11499729 2.68436913 -9 5 Z " fill="#FFFFFF" transform="translate(29,17)"/>
</svg>
